<mxfile host="app.diagrams.net" modified="2023-10-18T02:35:03.958Z" agent="Mozilla/5.0 (Windows NT 10.0; Win64; x64) AppleWebKit/537.36 (KHTML, like Gecko) Chrome/118.0.0.0 Safari/537.36 Edg/118.0.2088.46" etag="4Ez_pG4MqTtVPX3U697H" version="22.0.4" type="github">
  <diagram name="PÃ¡gina-1" id="CBNpNLV7el4-shJEnRAa">
    <mxGraphModel dx="872" dy="491" grid="1" gridSize="10" guides="1" tooltips="1" connect="1" arrows="1" fold="1" page="1" pageScale="1" pageWidth="827" pageHeight="2200" math="0" shadow="0">
      <root>
        <mxCell id="0" />
        <mxCell id="1" parent="0" />
        <mxCell id="rbo-y9n40W05J7s3LFVe-1" value="A" style="ellipse;whiteSpace=wrap;html=1;aspect=fixed;fontSize=28;" vertex="1" parent="1">
          <mxGeometry x="110" y="200" width="80" height="80" as="geometry" />
        </mxCell>
        <mxCell id="rbo-y9n40W05J7s3LFVe-9" style="edgeStyle=none;shape=connector;rounded=0;orthogonalLoop=1;jettySize=auto;html=1;labelBackgroundColor=default;strokeColor=default;align=center;verticalAlign=middle;fontFamily=Helvetica;fontSize=28;fontColor=default;endArrow=classic;" edge="1" parent="1" source="rbo-y9n40W05J7s3LFVe-2" target="rbo-y9n40W05J7s3LFVe-8">
          <mxGeometry relative="1" as="geometry" />
        </mxCell>
        <mxCell id="rbo-y9n40W05J7s3LFVe-2" value="B" style="ellipse;whiteSpace=wrap;html=1;aspect=fixed;fontSize=28;" vertex="1" parent="1">
          <mxGeometry x="270" y="130" width="80" height="80" as="geometry" />
        </mxCell>
        <mxCell id="rbo-y9n40W05J7s3LFVe-3" value="C" style="ellipse;whiteSpace=wrap;html=1;aspect=fixed;fontSize=28;" vertex="1" parent="1">
          <mxGeometry x="270" y="280" width="80" height="80" as="geometry" />
        </mxCell>
        <mxCell id="rbo-y9n40W05J7s3LFVe-4" style="rounded=0;orthogonalLoop=1;jettySize=auto;html=1;entryX=0;entryY=0.375;entryDx=0;entryDy=0;entryPerimeter=0;" edge="1" parent="1" source="rbo-y9n40W05J7s3LFVe-1" target="rbo-y9n40W05J7s3LFVe-3">
          <mxGeometry relative="1" as="geometry" />
        </mxCell>
        <mxCell id="rbo-y9n40W05J7s3LFVe-5" style="edgeStyle=none;shape=connector;rounded=0;orthogonalLoop=1;jettySize=auto;html=1;labelBackgroundColor=default;strokeColor=default;align=center;verticalAlign=middle;fontFamily=Helvetica;fontSize=28;fontColor=default;endArrow=classic;" edge="1" parent="1" source="rbo-y9n40W05J7s3LFVe-1" target="rbo-y9n40W05J7s3LFVe-2">
          <mxGeometry relative="1" as="geometry" />
        </mxCell>
        <mxCell id="rbo-y9n40W05J7s3LFVe-10" style="edgeStyle=none;shape=connector;rounded=0;orthogonalLoop=1;jettySize=auto;html=1;entryX=0.5;entryY=1;entryDx=0;entryDy=0;labelBackgroundColor=default;strokeColor=default;align=center;verticalAlign=middle;fontFamily=Helvetica;fontSize=28;fontColor=default;endArrow=classic;" edge="1" parent="1" source="rbo-y9n40W05J7s3LFVe-6" target="rbo-y9n40W05J7s3LFVe-8">
          <mxGeometry relative="1" as="geometry" />
        </mxCell>
        <mxCell id="rbo-y9n40W05J7s3LFVe-6" value="D" style="ellipse;whiteSpace=wrap;html=1;aspect=fixed;fontSize=28;strokeColor=default;align=center;verticalAlign=middle;fontFamily=Helvetica;fontColor=default;fillColor=default;" vertex="1" parent="1">
          <mxGeometry x="414" y="280" width="80" height="80" as="geometry" />
        </mxCell>
        <mxCell id="rbo-y9n40W05J7s3LFVe-7" style="edgeStyle=none;shape=connector;rounded=0;orthogonalLoop=1;jettySize=auto;html=1;labelBackgroundColor=default;strokeColor=default;align=center;verticalAlign=middle;fontFamily=Helvetica;fontSize=28;fontColor=default;endArrow=classic;" edge="1" parent="1" source="rbo-y9n40W05J7s3LFVe-3" target="rbo-y9n40W05J7s3LFVe-6">
          <mxGeometry relative="1" as="geometry" />
        </mxCell>
        <mxCell id="rbo-y9n40W05J7s3LFVe-12" style="edgeStyle=none;shape=connector;rounded=0;orthogonalLoop=1;jettySize=auto;html=1;labelBackgroundColor=default;strokeColor=default;align=center;verticalAlign=middle;fontFamily=Helvetica;fontSize=28;fontColor=default;endArrow=classic;" edge="1" parent="1" source="rbo-y9n40W05J7s3LFVe-8" target="rbo-y9n40W05J7s3LFVe-11">
          <mxGeometry relative="1" as="geometry" />
        </mxCell>
        <mxCell id="rbo-y9n40W05J7s3LFVe-8" value="E" style="ellipse;whiteSpace=wrap;html=1;aspect=fixed;fontSize=28;strokeColor=default;align=center;verticalAlign=middle;fontFamily=Helvetica;fontColor=default;fillColor=default;" vertex="1" parent="1">
          <mxGeometry x="480" y="160" width="80" height="80" as="geometry" />
        </mxCell>
        <mxCell id="rbo-y9n40W05J7s3LFVe-11" value="F" style="ellipse;whiteSpace=wrap;html=1;aspect=fixed;fontSize=28;strokeColor=default;align=center;verticalAlign=middle;fontFamily=Helvetica;fontColor=default;fillColor=default;" vertex="1" parent="1">
          <mxGeometry x="640" y="160" width="80" height="80" as="geometry" />
        </mxCell>
      </root>
    </mxGraphModel>
  </diagram>
</mxfile>
